<svg width="800" height="168" xmlns="http://www.w3.org/2000/svg" xmlns:svg="http://www.w3.org/2000/svg" version="1.1">
 <g class="layer">
  <title>Layer 1</title>
  <g id="svg_1">
   <path d="m452.09,125.83c-19.39,0 -35.1,-15.72 -35.1,-35.11c0,-19.4 15.72,-35.1 35.1,-35.1c6.83,0 13.21,1.95 18.6,5.33l-18.6,29.77l35.02,-20.22c-3.81,-6.06 -9.26,-11.29 -15.86,-15.25c-8.4,-5.02 -20.08,-8.14 -33,-8.14c-18.43,0 -34.59,6.7 -43.6,16.72c-6.68,7.41 -10.65,16.74 -10.65,26.89c0,10.15 3.97,19.49 10.65,26.91c9.04,10.04 24.96,16.7 43.08,16.7c18.12,0 34.04,-6.66 43.08,-16.7c0.5,-0.55 0.97,-1.11 1.43,-1.69l-1.37,-5.12c-6.35,9.07 -16.88,15.01 -28.79,15.01" fill="#BF1920" id="C"/>
   <path d="m568.2,132.21l-14.7,-54.84c-2.36,-8.86 -10.43,-15.37 -20.04,-15.37c-2.49,0 -4.88,0.44 -7.09,1.25l-31.65,11.5l32.55,0l5.56,20.77c-5.39,-4.64 -12.42,-7.47 -20.12,-7.47c-15.28,0 -27.65,10.24 -27.65,22.87c0,12.63 12.37,22.88 27.65,22.88c11,0 20.72,-5.38 26.72,-13.66l3.23,12.06l25.53,0m-44.84,-8.52c-7.05,0 -12.76,-5.71 -12.76,-12.77c0,-7.05 5.71,-12.76 12.76,-12.76s12.77,5.71 12.77,12.76c0,7.06 -5.72,12.77 -12.77,12.77z" fill="#BF1920" id="a"/>
   <path d="m628.13,62.01c-1.93,0 -3.75,0.43 -5.38,1.19l-20.32,9.47c-1.01,-6.05 -6.26,-10.66 -12.6,-10.66c-1.92,0 -3.75,0.43 -5.39,1.19l-24.81,11.56l17.44,0l0,57.45l25.53,0l0,-51.06c0,-3.52 2.85,-6.39 6.39,-6.39c3.51,0 6.39,2.87 6.39,6.39l0,51.06l25.52,0l0,-57.45c0,-7.05 -5.72,-12.75 -12.77,-12.75" fill="#BF1920" id="n1"/>
   <path d="m723.86,98.17c0,19.97 -16.18,36.15 -36.15,36.15c-19.98,0 -36.17,-16.18 -36.17,-36.15c0,-19.96 16.2,-36.16 36.17,-36.16c19.96,0 36.15,16.2 36.15,36.16m-34.65,-25.19c-1.14,-4.25 -5.51,-6.78 -9.76,-5.63c-4.25,1.14 -6.79,5.51 -5.65,9.77l12.4,46.23c1.15,4.26 5.51,6.78 9.76,5.66c4.25,-1.15 6.78,-5.53 5.64,-9.78l-12.4,-46.25z" fill="#BF1920" id="o"/>
   <path d="m788.24,62.01c-1.93,0 -3.77,0.43 -5.42,1.19l-20.3,9.47c-1,-6.05 -6.26,-10.66 -12.59,-10.66c-1.92,0 -3.75,0.43 -5.4,1.19l-24.8,11.56l17.44,0l0,57.45l25.53,0l0,-51.06c0,-3.52 2.86,-6.39 6.39,-6.39c3.52,0 6.37,2.87 6.37,6.39l0,51.06l25.54,0l0,-57.45c0,-7.05 -5.72,-12.75 -12.76,-12.75" fill="#BF1920" id="n2"/>
  </g>
 </g>
</svg>