<svg width="2433.6" height="1406" xmlns="http://www.w3.org/2000/svg" xmlns:svg="http://www.w3.org/2000/svg" enable-background="new 0 0 2433.6 1406" version="1.1" xml:space="preserve">
 <style type="text/css">.st0{fill:#414042;}</style>
 <g class="layer">
  <title>Layer 1</title>
  <g id="svg_1">
   <path class="st0" d="m1999.18,895.11l119.12,-498.54l-255.75,0l-108.96,446.94c-15.79,87.16 -108.83,127.99 -174.73,129.06l-181.36,0l-61.45,179.72l380.91,0c93.9,0 232.59,-48.39 282.23,-257.19" id="svg_2"/>
   <path class="st0" d="m1462.19,719.33l120.24,-506.76l263.32,0l-136.9,576.33c-26.34,111.28 -108.43,137.95 -184.35,137.95l-606.66,0c-66.82,0.13 -122.9,-28.54 -92.57,-156.93l54.68,-229.85c27.67,-116.7 113.74,-143.3 176.05,-143.3l423.44,0l-34.18,143.7l-216.13,0c-31.79,0 -49.17,6.75 -58.2,44.11l-34.77,146.84c-12.48,52.67 5.84,56.28 44.2,56.28l198.09,0c36.23,0.07 68.09,-2.21 83.75,-68.37m713.97,-322.76l-123.89,530.28l255.69,0l123.89,-530.28l-255.69,0z" id="svg_3"/>
  </g>
 </g>
</svg>