<svg width="1028.9351" height="171.233" xmlns="http://www.w3.org/2000/svg" xmlns:svg="http://www.w3.org/2000/svg" version="1.1">

 <metadata id="metadata25171">image/svg+xml</metadata>
 <g class="layer">
  <title>Layer 1</title>
  <g id="g5512" transform="matrix(0.911702 0 0 0.911702 575.441 94.4252)">
   <g fill="#000000" id="g24728" transform="matrix(4.39168 0 0 -4.39168 379.349 2.01011)">
    <path d="m0,9.99l0,-14.77c0,-0.96 0.47,-1.45 1.44,-1.5c0.01,0 4.87,0 4.87,0l0,-1.66c0,-0.18 -0.1,-0.32 -0.31,-0.32l-7.88,0c-2.43,0 -2.79,1.34 -2.79,2.56l0,14.69c0,0.69 0.26,1.02 1.08,1l3.59,0" fill="#000000" fill-rule="nonzero" id="path24730"/>
   </g>
   <g fill="#000000" id="g24732" transform="matrix(4.39168 0 0 -4.39168 339.472 2.01011)">
    <path d="m0,9.99l0,-17.28c0,-0.77 -0.33,-0.97 -0.98,-0.97l-3.7,0l0,17.3c0,0.57 0.22,0.95 1.05,0.95l3.63,0" fill="#000000" fill-rule="nonzero" id="path24734"/>
   </g>
   <g fill="#000000" id="g24736" transform="matrix(4.39168 0 0 -4.39168 0 13.0539)">
    <path d="m0,9.99c0,1.39 0,2.52 2.29,2.52l10.04,0l0,-1.76c0,-0.12 -0.06,-0.24 -0.23,-0.24l-6.02,0.01c-0.81,0 -1.22,-0.39 -1.22,-1.21l0,-4.63l7.09,0l0,-1.84c0,-0.17 -0.11,-0.25 -0.27,-0.25l-6.82,0l0,-7.35c-0.01,-0.71 -0.37,-0.99 -1.14,-0.98l-3.72,0l0,15.73" fill="#000000" fill-rule="nonzero" id="path24738"/>
   </g>
   <g fill="#000000" id="g24740" transform="matrix(4.39168 0 0 -4.39168 86.0146 2.00221)">
    <path d="m0,9.99l0,-13.91c0,-1.19 0.17,-2.03 1.01,-2.51c1.12,-0.65 3.02,-0.66 4.17,-0.02c0.78,0.44 1.08,1.14 1.08,2.53l0,12.98c0,0.59 0.22,0.93 1.04,0.93l3.63,0l0,-13.5c0,-3.13 -1.97,-4.42 -3.72,-4.89c-2.32,-0.64 -5.84,-0.65 -8.03,0.01c-2.62,0.79 -3.85,2.34 -3.85,4.88l0,12.56c0,0.61 0.22,0.94 0.91,0.94l3.76,0" fill="#000000" fill-rule="nonzero" id="path24742"/>
   </g>
   <g fill="#000000" id="g24744" transform="matrix(4.39168 0 0 -4.39168 474.263 2.01451)">
    <path d="m0,9.99c-0.92,0 -1.45,-0.43 -1.66,-1.25l-2.97,-12.58l-0.08,0l-3.08,13.83l-4.2,0c-0.81,0 -1.07,-0.42 -1.07,-1.06l0,-17.18l1.78,0c0.28,0 0.4,0.14 0.4,0.43l0,14.41l0.28,0l3.8,-14.84l2.49,0c0.94,0 1.29,0.38 1.52,1.31l3.41,13.53l0.28,0l0,-14.84l3.32,0c0.81,0 1.18,0.31 1.18,1.11l0,17.13l-5.4,0" fill="#000000" fill-rule="nonzero" id="path24746"/>
   </g>
   <g fill="#000000" id="g24748" transform="matrix(4.39168 0 0 -4.39168 231.58 45.5541)">
    <path d="m0,9.99l-4.67,0l0,-8.33l3.69,0c0.65,0 0.98,0.19 0.98,0.96c0,0 0,3.56 0,7.37" fill="#000000" fill-rule="nonzero" id="path24750"/>
   </g>
   <g id="g24752" transform="matrix(4.39168 0 0 -4.39168 230.383 29.9214)">
    <path d="m0,9.99c0.16,0.13 0.26,0.23 0.27,0.52l0,5.83l-3.63,0c-0.81,0 -1.04,-0.39 -1.04,-0.96l0,-8.84l4.4,3.45" fill="#ed1a3a" fill-rule="nonzero" id="path24754"/>
   </g>
   <g fill="#000000" id="g24756" transform="matrix(4.39168 0 0 -4.39168 160.013 75.7983)">
    <path d="m0,9.99c2.03,0.29 2.71,1.49 2.71,3.27l0,12.54c0,0.75 0.4,0.99 0.93,0.99l3.74,0l0,-11.85c0,-2.92 -0.62,-4.39 -2.34,-5.63c-0.9,-0.65 -2.47,-1.39 -5.88,-1.39c-1.95,0 -2.82,0.11 -2.93,0.14c-0.17,0.04 -0.24,0.14 -0.24,0.28l0,1.53c0.81,-0.02 2.64,-0.08 4.01,0.12" fill="#000000" fill-rule="nonzero" id="path24758"/>
   </g>
   <g fill="#000000" id="g24760" transform="matrix(4.39168 0 0 -4.39168 262.677 2.00221)">
    <path d="m0,9.99c-2.28,0 -2.28,-1.13 -2.28,-2.52l0,-4.7c0,-0.1 -0.05,-0.13 -0.09,-0.18l-3.2,-2.52l3.29,0l0,-8.33l3.71,0c0.78,-0.01 1.13,0.27 1.14,0.98l0,7.35l6.83,0c0.16,0 0.26,0.09 0.26,0.25l0,1.84l-7.09,0l0,4.63c0,0.82 0.41,1.21 1.22,1.21l6.02,0c0.17,0 0.24,0.11 0.24,0.23l0,1.76l-10.05,0" fill="#000000" fill-rule="nonzero" id="path24762"/>
   </g>
  </g>
 </g>
</svg>