<svg width="500.00001" height="89.67711" xmlns="http://www.w3.org/2000/svg" xmlns:svg="http://www.w3.org/2000/svg" version="1.1">
 <metadata id="metadata4264">image/svg+xml</metadata>

 <g class="layer">
  <title>Layer 1</title>
  <path d="m359.95,64.99c-7.82,0 -15.09,-2.35 -19.94,-6.7c-3.66,-3.29 -5.42,-7.75 -5.42,-12.35c0,-4.54 1.83,-9.03 5.42,-12.31c4.5,-4.1 12.45,-6.68 19.94,-6.68c8.28,0 14.91,2.09 19.98,6.68c3.6,3.27 5.35,7.75 5.35,12.3c0,4.41 -1.85,9.1 -5.35,12.35c-4.72,4.38 -12.14,6.7 -19.98,6.7l0,-5.02c4.15,0 8,-1.43 10.7,-4.11c2.67,-2.66 3.92,-5.93 3.92,-9.92c0,-3.83 -1.34,-7.4 -3.92,-9.94c-2.65,-2.62 -6.6,-4.09 -10.7,-4.09c-4.11,0 -8.06,1.46 -10.71,4.09c-2.56,2.54 -3.91,6.12 -3.91,9.94c0,3.8 1.36,7.39 3.91,9.92c2.66,2.64 6.59,4.11 10.71,4.11l0,5.02zm-57.19,-38.01c-4.19,0 -8.94,0.79 -12.98,2.59c-3.73,1.66 -6.78,4.35 -6.78,8.81c0,4.02 2.55,6.37 2.48,6.31c1.09,1 2.84,2.7 7.41,3.7c2.04,0.45 6.41,1.13 10.76,1.58c4.32,0.46 8.57,0.89 10.29,1.33c1.38,0.35 3.69,0.83 3.69,3.42c0,2.58 -2.43,3.37 -2.85,3.54c-0.43,0.17 -3.34,1.51 -8.59,1.51c-3.87,0 -8.53,-1.17 -10.23,-1.77c-1.96,-0.7 -4.01,-1.62 -5.92,-3.96c-0.48,-0.58 -1.23,-2.18 -1.23,-3.76l-4.75,0l0,13.31l5.28,0l0,-1.8c0,-0.2 0.26,-1.05 1.14,-0.65c1.1,0.5 4.34,1.79 7.72,2.49c2.78,0.58 4.56,1 8.01,1c5.63,0 8.65,-0.92 10.74,-1.51c1.97,-0.56 4.4,-1.57 6.38,-3.15c1.07,-0.85 3.42,-3.04 3.42,-7c0,-3.81 -2.04,-6.17 -2.76,-6.89c-0.98,-0.98 -2.17,-1.74 -3.42,-2.32c-1.08,-0.51 -2.8,-1.12 -4.2,-1.47c-2.72,-0.67 -8.87,-1.49 -11.81,-1.8c-3.09,-0.33 -8.44,-0.77 -10.57,-1.43c-0.65,-0.2 -1.97,-0.83 -1.97,-2.36c0,-1.09 0.6,-2.02 1.8,-2.76c1.9,-1.19 5.73,-1.93 9.72,-1.93c4.72,-0.02 8.71,1.06 11.26,2.19c0.86,0.39 1.88,0.94 2.68,1.6c0.91,0.74 2.18,2.28 2.64,4.42l4.26,0l0,-11.59l-4.76,0l0,1.34c0,0.44 -0.45,1 -1.3,0.53c-2.13,-1.11 -8.15,-3.53 -15.54,-3.54m104.33,2.1l23.22,20.96l-0.24,-14.11c-0.03,-1.85 -0.36,-2.62 -2.37,-2.62l-4.36,0l0,-4.22l19.86,0l0,4.22l-4.26,0c-2.04,0 -2.17,0.65 -2.19,2.62l0.36,26.96l-6.8,0l-26.75,-23.87l0,16.95c0.03,1.84 0.11,2.71 2.01,2.71l4.77,0l0,4.22l-19.5,0l0,-4.22l4.56,0c1.7,0 1.64,-1.62 1.64,-2.8l0,-19.78c0,-1.28 -0.18,-2.78 -2.85,-2.78l-3.7,0l0,-4.23l16.61,0zm58.8,29.58c0.19,0 1.01,-0.02 1.18,-0.07c0.46,-0.14 0.77,-0.47 0.92,-0.81c0.06,-0.14 0.09,-0.78 0.09,-0.92l0,-6.67c0,-0.16 -0.01,-0.23 -0.28,-0.59c-0.3,-0.39 -12.17,-13.84 -12.71,-14.43c-0.67,-0.73 -1.86,-1.87 -3.66,-1.87l-4.12,0l0,-4.22l23.28,0l0,4.22l-2.81,0c-0.65,0 -1.08,0.62 -0.52,1.3c0,0 7.83,9.37 7.91,9.47c0.07,0.1 0.13,0.13 0.23,0.03c0.1,-0.1 8.03,-9.42 8.09,-9.49c0.38,-0.45 0.12,-1.31 -0.69,-1.31l-2.88,0l0,-4.22l19.08,0l0,4.22l-4.26,0c-1.55,0 -2.18,0.29 -3.34,1.6c-0.53,0.6 -12.52,14.29 -12.85,14.66c-0.17,0.2 -0.16,0.46 -0.16,0.62l0,6.67c0,0.13 0.03,0.77 0.09,0.91c0.15,0.34 0.46,0.67 0.92,0.81c0.16,0.05 0.98,0.07 1.17,0.07l4.36,0l0,4.22l-23.17,0l0,-4.22l4.13,0z" id="path4258"/>
 </g>
</svg>